<?xml version="1.0" encoding="UTF-8" standalone="no"?>
<svg
   xmlns:dc="http://purl.org/dc/elements/1.1/"
   xmlns:cc="http://creativecommons.org/ns#"
   xmlns:rdf="http://www.w3.org/1999/02/22-rdf-syntax-ns#"
   xmlns:svg="http://www.w3.org/2000/svg"
   xmlns="http://www.w3.org/2000/svg"
   xmlns:sodipodi="http://sodipodi.sourceforge.net/DTD/sodipodi-0.dtd"
   xmlns:inkscape="http://www.inkscape.org/namespaces/inkscape"
   width="581.62439"
   height="68.7276"
   viewBox="0 0 153.88812 18.184178"
   version="1.1"
   id="svg8"
   inkscape:version="1.0.1 (3bc2e813f5, 2020-09-07)"
   sodipodi:docname="bonvoyage_orange.svg">
  <defs
     id="defs2" />
  <sodipodi:namedview
     id="base"
     pagecolor="#ffffff"
     bordercolor="#666666"
     borderopacity="1.0"
     inkscape:pageopacity="0.0"
     inkscape:pageshadow="2"
     inkscape:zoom="1.4142136"
     inkscape:cx="191.74611"
     inkscape:cy="49.133028"
     inkscape:document-units="mm"
     inkscape:current-layer="layer2"
     inkscape:document-rotation="0"
     showgrid="false"
     units="px"
     inkscape:window-width="1920"
     inkscape:window-height="1016"
     inkscape:window-x="0"
     inkscape:window-y="27"
     inkscape:window-maximized="0"
     fit-margin-top="0"
     fit-margin-left="0"
     fit-margin-right="0"
     fit-margin-bottom="0" />
  <metadata
     id="metadata5">
    <rdf:RDF>
      <cc:Work
         rdf:about="">
        <dc:format>image/svg+xml</dc:format>
        <dc:type
           rdf:resource="http://purl.org/dc/dcmitype/StillImage" />
        <dc:title></dc:title>
      </cc:Work>
    </rdf:RDF>
  </metadata>
  <g
     inkscape:label="Layer 1"
     inkscape:groupmode="layer"
     id="layer1"
     transform="translate(-2.4309369,-17.366244)" />
  <g
     inkscape:groupmode="layer"
     id="layer2"
     inkscape:label="Layer 2"
     transform="translate(-2.4309369,-17.366244)">
    <rect
       style="fill:#ff5619;fill-opacity:1;stroke-width:0.1"
       id="rect838"
       width="14.415901"
       height="14.415901"
       x="5.0220852"
       y="59.667442"
       ry="0.90099353" />
    <rect
       style="fill:#ffffff;fill-opacity:1;stroke:#000000;stroke-width:0.3;stroke-miterlimit:4;stroke-dasharray:none;stroke-opacity:1"
       id="rect838-0"
       width="14.415902"
       height="14.415902"
       x="26.76544"
       y="59.682728"
       ry="0.90099353" />
    <g
       id="g1734"
       transform="translate(0.55101664,1.8846483)"
       inkscape:export-filename="/home/matteo/voyage_white.png"
       inkscape:export-xdpi="96"
       inkscape:export-ydpi="96"
       style="fill:#ff5619;fill-opacity:1">
      <text
         xml:space="preserve"
         style="font-size:23.8231px;line-height:1.25;font-family:sans-serif;letter-spacing:0px;fill:#ff5619;stroke-width:0.372236;fill-opacity:1"
         x="11.424279"
         y="33.475189"
         id="text836"><tspan
           sodipodi:role="line"
           id="tspan834"
           x="11.424279"
           y="33.475189"
           style="font-style:italic;font-variant:normal;font-weight:800;font-stretch:normal;font-size:23.8231px;font-family:'Merriweather Sans';-inkscape-font-specification:'Merriweather Sans Ultra-Bold Italic';fill:#ff5619;fill-opacity:1;stroke-width:0.372236">B    N VOYAGE</tspan></text>
      <path
         id="rect873"
         style="fill:#ff5619;fill-opacity:1;stroke:none;stroke-width:0.794818"
         d="m 13.253404,17.290157 -4.3047077,3.2871 v 0.03498 h 6.8267517 v -3.32207 z" />
      <path
         id="rect873-7"
         style="fill:#ff5619;fill-opacity:1;stroke:none;stroke-width:0.794818"
         d="M 6.1846268,28.095369 1.8799203,31.38247 v 0.03498 h 6.826751 v -3.32207 z" />
      <rect
         style="fill:#ff5619;fill-opacity:1;stroke:none;stroke-width:0.38667"
         id="rect918"
         width="6.6342621"
         height="3.3220713"
         x="8.3529291"
         y="28.095375" />
      <path
         id="rect873-7-5"
         style="fill:#ff5619;fill-opacity:1;stroke:none;stroke-width:0.794818"
         d="m 9.5707328,22.714798 -4.3047064,3.287101 v 0.03498 h 6.8267516 v -3.32207 z" />
      <rect
         style="fill:#ff5619;fill-opacity:1;stroke:none;stroke-width:0.337844"
         id="rect918-3"
         width="5.0645976"
         height="3.3220718"
         x="11.764588"
         y="22.714806" />
      <path
         id="path1576-6"
         style="fill:#ff5619;fill-opacity:1;stroke-width:0.0346725"
         d="m 32.103446,17.085768 c -1.425181,0.999907 -2.580323,2.392184 -3.381357,4.08074 -0.258504,0.544931 -0.669572,1.793849 -0.775209,2.355269 -0.241963,1.285895 -0.265427,2.439219 -0.07292,3.58268 0.452012,2.684883 1.997413,4.826788 4.256519,5.89949 0.48883,0.232114 1.550265,0.538737 2.086287,0.602667 0.882121,0.105207 1.782704,0.05667 2.678022,-0.144351 0.894051,-0.200741 1.747893,-0.554487 2.602735,-1.078274 1.75878,-1.077661 3.158888,-2.726914 4.028758,-4.745661 0.160473,-0.372419 0.53895,-1.58434 0.613785,-1.965441 0.525857,-2.677974 0.04579,-5.20953 -1.359019,-7.166406 -2.133443,-2.971855 -5.888164,-3.853379 -9.369783,-2.19985 -0.188629,0.08958 -0.574261,0.306279 -0.856962,0.48156 -0.153117,0.09493 -0.303426,0.194139 -0.450856,0.297577 z m 0.808711,1.311806 c 0.162046,-0.11219 0.328502,-0.218252 0.499208,-0.317802 2.968996,-1.731483 6.414509,-0.984946 8.18572,1.773648 0.225928,0.351886 0.580269,1.115732 0.718357,1.548452 0.384954,1.20634 0.450071,2.579291 0.185478,3.911087 -0.100273,0.504686 -0.448125,1.558709 -0.666052,2.018177 -0.719888,1.517788 -1.832004,2.75256 -3.22436,3.579946 -1.311267,0.7792 -2.660423,1.087883 -4.069042,0.930971 -0.494378,-0.05507 -1.318508,-0.292692 -1.759605,-0.507343 -1.94361,-0.945823 -3.19257,-2.845155 -3.431843,-5.218857 -0.300295,-2.979041 1.131488,-6.035406 3.562139,-7.718279 z m 0.384987,0.303154 0.07714,0.144164 c 0.133669,0.249792 0.612206,0.908882 0.86234,1.187696 0.4541,0.506172 0.999739,0.867413 1.410204,0.933659 1.044462,0.168572 1.993809,-0.481731 3.126657,-2.141733 0.195712,-0.286785 0.349366,-0.536045 0.34148,-0.553899 -0.03476,-0.07868 -0.633436,-0.300659 -1.17521,-0.435711 -0.592429,-0.147683 -0.906752,-0.180555 -1.521266,-0.159153 -0.886079,0.03086 -1.924012,0.344275 -2.811717,0.848969 z m -0.53467,0.40507 c -0.06064,0.04377 -0.152793,0.117036 -0.249242,0.199107 -0.220658,0.187748 -0.273088,0.247523 -0.245472,0.279817 0.205352,0.240136 1.519147,2.179898 1.871593,2.763349 0.114657,0.189789 0.218629,0.347574 0.231111,0.35061 0.01249,0.003 0.07772,-0.04761 0.145008,-0.112462 0.06726,-0.06488 0.18525,-0.155375 0.262199,-0.20111 0.07693,-0.04575 0.143197,-0.09303 0.14718,-0.105056 0.0039,-0.01211 -0.115168,-0.193862 -0.264717,-0.403993 -0.287599,-0.404094 -1.057289,-1.603186 -1.516278,-2.36218 -0.150831,-0.249402 -0.291312,-0.452142 -0.312146,-0.450552 -0.0079,6.27e-4 -0.03287,0.01619 -0.06924,0.04249 z m -0.93144,0.876561 c -0.09858,0.0791 -0.402087,0.462245 -0.653559,0.830969 -0.85414,1.252377 -1.332335,2.711804 -1.381015,4.21476 -0.0082,0.252426 -0.0039,0.598086 0.0096,0.768147 l 0.02446,0.309188 0.29456,-0.117941 c 1.27485,-0.510587 2.178335,-1.150458 2.5975,-1.83953 0.141733,-0.233014 0.314957,-0.75692 0.342237,-1.035136 0.07829,-0.79838 -0.253692,-1.753178 -0.996706,-2.866522 -0.09922,-0.148693 -0.193102,-0.274008 -0.208655,-0.27849 -0.0027,-7.62e-4 -0.0066,2.89e-4 -0.01153,0.0029 -0.0048,0.0025 -0.01027,0.0064 -0.01691,0.0117 z m 7.727731,-1.458568 c -0.0097,0.0068 -0.202568,0.306354 -0.42844,0.665828 -0.591767,0.941791 -1.303096,2.019786 -1.637024,2.480872 -0.158986,0.219531 -0.298315,0.419816 -0.309608,0.44505 -0.01323,0.02959 0.04939,0.09098 0.176374,0.172871 0.108301,0.06985 0.2283,0.153673 0.266689,0.186315 l 0.06979,0.05937 0.237576,-0.382171 c 0.276598,-0.44498 1.450806,-2.159554 1.89134,-2.761749 0.166728,-0.227914 0.301236,-0.426976 0.298937,-0.442345 -0.0056,-0.0371 -0.54277,-0.439843 -0.565622,-0.424043 z m -9.644757,8.111795 0.07262,0.295785 c 0.03996,0.162664 0.08297,0.3311 0.09554,0.374288 0.02149,0.07385 0.06424,0.05948 0.717933,-0.240593 0.997549,-0.457928 1.928231,-0.856977 2.478935,-1.062968 0.262842,-0.09831 0.481384,-0.187739 0.485652,-0.198732 0.0043,-0.01103 -0.01499,-0.06728 -0.04277,-0.125065 -0.02779,-0.05779 -0.07399,-0.203943 -0.102708,-0.324755 l -0.05221,-0.219648 -0.206733,0.0993 c -0.585626,0.281316 -2.022875,0.872672 -3.049245,1.254621 z M 40.49294,19.298469 c -0.03295,0.02054 -0.551305,0.797326 -0.699051,1.047706 -0.406878,0.689507 -0.696709,1.429605 -0.76939,1.964647 -0.111601,0.821501 0.179859,1.517352 0.854613,2.040491 0.339507,0.263216 0.805311,0.482308 1.509577,0.710034 l 0.644055,0.208283 0.04068,-0.196813 c 0.06249,-0.302462 0.115587,-0.90753 0.115274,-1.314108 -0.0012,-1.637418 -0.533934,-3.143382 -1.512289,-4.27548 -0.0924,-0.10691 -0.174945,-0.190055 -0.183456,-0.184764 z m -5.325255,3.842683 c -0.236919,0.169855 -0.441968,0.405801 -0.592637,0.696821 -0.213253,0.411898 -0.240439,0.94814 -0.07034,1.386597 0.183852,0.473888 0.480015,0.74985 0.950405,0.885567 0.466443,0.134581 0.865085,0.06652 1.31035,-0.223747 0.245042,-0.159743 0.398584,-0.31839 0.551902,-0.570325 0.573069,-0.941712 0.175268,-2.140175 -0.804151,-2.422761 -0.467365,-0.134847 -0.95068,-0.03526 -1.345536,0.247848 z m 0.112564,0.1485 c 0.09807,-0.06692 0.200912,-0.122261 0.30114,-0.160931 0.544708,-0.210182 1.150492,-0.0569 1.517253,0.383961 0.217724,0.261709 0.347956,0.773158 0.281101,1.104004 -0.01757,0.08691 -0.03833,0.190965 -0.04617,0.23117 -0.0605,0.310267 -0.408201,0.756984 -0.734149,0.943237 -0.891507,0.509428 -1.955288,-0.04309 -2.032133,-1.055446 -0.01534,-0.2021 -0.0036,-0.269234 0.10449,-0.597872 0.107334,-0.326315 0.139244,-0.39092 0.269026,-0.544707 0.09497,-0.112542 0.213309,-0.217438 0.339444,-0.303417 z m -4.990253,4.579896 0.08172,0.192536 c 0.505019,1.190341 1.551458,2.265236 2.732439,2.806638 0.26912,0.123378 1.431084,0.441025 1.620301,0.442967 0.05139,5.23e-4 0.101395,-0.02328 0.111142,-0.05292 0.04561,-0.138672 0.0507,-1.289556 0.0076,-1.740693 -0.09785,-1.026079 -0.360141,-1.636459 -0.877504,-2.041757 -0.264784,-0.207437 -0.807266,-0.353137 -1.237529,-0.332427 -0.553189,0.02663 -1.280273,0.228083 -2.11047,0.584798 z m 8.10657,-3.030952 -0.111235,0.33822 -0.111254,0.33818 1.354033,0.392868 c 0.74472,0.216062 1.528869,0.456159 1.742516,0.533563 l 0.388445,0.140721 0.129354,-0.393211 0.129328,-0.393254 -0.701901,-0.172521 c -0.38606,-0.09489 -1.178353,-0.310221 -1.760617,-0.47853 z m -2.84306,2.254926 c -0.01439,0.0085 -0.01972,0.01956 -0.01917,0.03398 0.01878,0.449539 -0.09167,2.936414 -0.17225,3.87825 -0.01651,0.192911 -0.0108,0.315377 0.01508,0.322843 0.04208,0.01212 0.594894,-0.01512 0.647849,-0.03194 0.04692,-0.01491 0.04822,-0.03462 0.05799,-0.967611 0.01064,-1.007409 0.06181,-2.493658 0.102251,-2.96775 0.02214,-0.25966 0.01664,-0.311116 -0.03235,-0.301835 -0.03249,0.0062 -0.18549,0.01079 -0.340019,0.01032 -0.152352,-4.68e-4 -0.227812,0.0051 -0.259445,0.02371 z m 2.368336,0.0011 c -0.304458,0.207683 -0.560102,0.491116 -0.74646,0.834525 -0.251868,0.464108 -0.461615,1.248087 -0.537007,2.006854 -0.03887,0.391101 -0.06726,1.235392 -0.04176,1.242124 0.0109,0.0029 0.150443,-0.03074 0.310039,-0.07466 1.009416,-0.277794 2.150148,-0.966633 2.984245,-1.802053 0.489373,-0.490147 0.96936,-1.134084 1.320294,-1.771307 0.08574,-0.155747 0.168678,-0.318558 0.184323,-0.361813 l 0.02844,-0.07867 -0.552995,-0.158813 c -0.898128,-0.257902 -1.545051,-0.310659 -2.159847,-0.176147 -0.286176,0.06261 -0.552471,0.178413 -0.789257,0.33997 z" />
    </g>
  </g>
</svg>
