<?xml version="1.0" encoding="UTF-8" standalone="no"?>
<svg
   xmlns:dc="http://purl.org/dc/elements/1.1/"
   xmlns:cc="http://creativecommons.org/ns#"
   xmlns:rdf="http://www.w3.org/1999/02/22-rdf-syntax-ns#"
   xmlns:svg="http://www.w3.org/2000/svg"
   xmlns="http://www.w3.org/2000/svg"
   xmlns:sodipodi="http://sodipodi.sourceforge.net/DTD/sodipodi-0.dtd"
   xmlns:inkscape="http://www.inkscape.org/namespaces/inkscape"
   version="1.1"
   id="svg1003"
   width="666.66669"
   height="666.66669"
   viewBox="0 0 666.66669 666.66669"
   sodipodi:docname="wheel.svg"
   inkscape:version="1.0.1 (3bc2e813f5, 2020-09-07)">
  <metadata
     id="metadata1009">
    <rdf:RDF>
      <cc:Work
         rdf:about="">
        <dc:format>image/svg+xml</dc:format>
        <dc:type
           rdf:resource="http://purl.org/dc/dcmitype/StillImage" />
        <dc:title></dc:title>
      </cc:Work>
    </rdf:RDF>
  </metadata>
  <defs
     id="defs1007" />
  <sodipodi:namedview
     pagecolor="#ffffff"
     bordercolor="#666666"
     borderopacity="1"
     objecttolerance="10"
     gridtolerance="10"
     guidetolerance="10"
     inkscape:pageopacity="0"
     inkscape:pageshadow="2"
     inkscape:window-width="1920"
     inkscape:window-height="1016"
     id="namedview1005"
     showgrid="false"
     inkscape:zoom="0.91428904"
     inkscape:cx="285.22049"
     inkscape:cy="331.29016"
     inkscape:window-x="0"
     inkscape:window-y="27"
     inkscape:window-maximized="0"
     inkscape:current-layer="g1011" />
  <g
     inkscape:groupmode="layer"
     inkscape:label="Image"
     id="g1011">
    <path
       id="path1576"
       style="fill:#000000;stroke-width:1.29512"
       d="M 353.95508 13.804688 C 290.62069 14.077538 228.41039 32.611669 171.75391 68.224609 C 153.46981 79.717549 117.24724 110.02983 103.44336 125.38867 C 71.826589 160.5669 49.532282 196.35585 34.1875 236.5625 C -1.8425282 330.96903 6.5272301 432.22205 57.240234 515.44531 C 68.213598 533.45326 95.730609 566.34249 111.32617 580.08984 C 136.99142 602.71353 166.10891 620.90225 197.91211 634.17578 C 229.67015 647.43045 263.02896 654.98887 299.59766 657.2168 C 374.83542 661.8006 449.52278 640.54019 514.50781 596.04102 C 526.49617 587.83185 561.00646 557.97066 570.47461 547.61328 C 637.00675 474.83254 669.29168 384.63796 661.86719 292.28711 C 650.59182 152.03628 549.45577 42.087389 409.48633 17.912109 C 401.90296 16.602326 385.77261 14.980511 373.64062 14.308594 C 367.06962 13.944662 360.50691 13.776461 353.95508 13.804688 z M 354.76562 72.800781 C 361.93876 72.816976 369.13555 73.122924 376.34375 73.726562 C 501.71278 84.225387 595.68634 183.1559 599.60156 308.76367 C 600.10097 324.78602 596.92174 356.58675 593.1582 373.23047 C 582.66626 419.62956 559.04123 464.27095 525.85742 500.39844 C 513.28236 514.08898 482.68291 539.65039 467.26758 549.3418 C 416.34513 581.35605 358.42691 595.87496 299.3457 591.43555 C 243.70529 587.25467 195.67344 567.43399 154.48242 531.65625 C 140.02576 519.09949 118.65226 493.57749 108.84766 477.16406 C 65.645717 404.8417 62.027285 317.71411 98.904297 237.75977 C 145.18556 137.41573 247.16858 72.557862 354.76562 72.800781 z M 361.1582 90.771484 L 360.87891 96.998047 C 360.39648 107.78706 363.06613 139.00944 365.68945 153.26172 C 370.45187 179.13571 380.79091 202.45193 392.41016 213.52344 C 421.97619 241.69572 463.8702 242.0104 530.38672 214.56055 C 541.87827 209.81827 551.3508 205.33634 551.4375 204.60156 C 551.81954 201.36384 537.21563 181.27022 522.76953 165.1582 C 506.97272 147.53972 497.74123 139.62354 478.0918 126.84375 C 449.75902 108.41636 411.38764 95.558166 374.14648 92.009766 L 361.1582 90.771484 z M 336.83789 91.816406 C 334.12001 91.867093 329.86402 92.155372 325.30859 92.626953 C 314.88703 93.705793 312.1273 94.439627 312.38867 96.060547 C 314.33229 108.11495 319.22579 197.93461 319.35938 224.01562 C 319.40283 232.49968 319.71046 239.74251 320.04492 240.11133 C 320.3794 240.48014 323.36962 240.31556 326.68945 239.74609 C 330.00927 239.17662 335.39681 238.91104 338.66211 239.15625 C 341.92744 239.40144 344.88662 239.36308 345.23633 239.07031 C 345.58604 238.77754 345.25274 230.44685 344.49609 220.55859 C 343.04097 201.5428 341.3458 146.94882 341.15625 113.00977 C 341.09396 101.85732 340.48315 92.400251 339.80078 91.994141 C 339.54489 91.841853 338.46862 91.785994 336.83789 91.816406 z M 291.27539 99.015625 C 286.70882 99.34702 270.03933 104.76269 255.26953 110.86328 C 205.10311 131.58428 162.84262 167.05296 133.22266 213.29492 C 128.24788 221.06145 121.92159 232.03604 119.16406 237.68359 L 114.15039 247.95117 L 125.58203 250.6875 C 175.06049 262.52608 215.32287 262.16516 241.33398 249.65234 C 250.12957 245.42116 265.34904 232.72245 271.4043 224.5625 C 288.78088 201.14615 296.23005 163.82448 293.76758 112.51367 C 293.43872 105.66101 292.84066 99.661267 292.4375 99.179688 C 292.36883 99.097661 292.22899 99.043618 292.02344 99.017578 C 291.83073 98.993166 291.57983 98.993532 291.27539 99.015625 z M 560.60742 222.28711 C 560.17457 222.28565 548.53525 227.49523 534.74023 233.86523 C 498.59841 250.55406 456.16525 268.91254 437.08594 276.11523 C 428.00199 279.54454 419.89379 282.79874 419.06836 283.3457 C 418.10058 283.987 418.91467 287.29088 421.36133 292.64844 C 423.44813 297.21801 425.64016 302.48367 426.23242 304.35156 L 427.30859 307.74805 L 441.89453 300.91992 C 458.87702 292.96911 527.70921 264.70695 552.76562 255.39648 C 562.24873 251.87275 570.18331 248.55184 570.39844 248.01758 C 570.9177 246.72804 561.61857 222.29011 560.60742 222.28711 z M 106.85547 266.4668 L 103.60156 277.36719 C 101.81257 283.36221 100.01115 289.60555 99.597656 291.24023 C 98.890623 294.03533 100.49841 294.51907 126.58398 299.38477 C 166.39175 306.81005 203.00437 314.62461 224.10547 320.19727 C 234.17673 322.85701 242.69402 324.82674 243.0332 324.57422 C 243.37234 324.32168 243.82141 322.12837 244.03125 319.70117 C 244.2411 317.27399 245.5259 311.66178 246.88477 307.23047 L 249.35547 299.17383 L 241.02344 297.77344 C 217.42031 293.80727 161.34493 280.95555 122.05469 270.50781 L 106.85547 266.4668 z M 575.38867 267.12305 C 573.97223 267.04637 543.21479 280.15044 533.90625 284.79688 C 508.27195 297.59246 485.3585 314.54303 473.08008 329.79297 C 454.22777 353.20777 450.34993 381.49164 461.70703 412.73047 C 467.4214 428.44846 477.91718 445.54239 495.7207 468.12891 L 512.00195 488.78516 L 516.95508 483.48047 C 524.56663 475.32813 537.54036 457.44508 545.13086 444.64062 C 575.70015 393.07304 587.16556 334.0086 577.68164 276.95508 C 576.78601 271.56723 575.7543 267.14285 575.38867 267.12305 z M 336.74609 271.49219 C 326.14958 271.65229 315.31596 274.5895 305.15625 280.45117 C 290.77653 288.74759 279.90089 305.03146 277.0332 322.55664 C 273.93374 341.4981 278.05234 356.66814 290.25 371.23828 C 302.34533 385.68619 316.10498 392.27103 335.47852 392.88281 C 346.14041 393.2195 353.91568 391.58736 363.42773 387.01367 C 398.98234 369.91792 408.92464 323.48557 383.52734 293.14844 C 371.40811 278.67197 354.40694 271.22536 336.74609 271.49219 z M 337.49609 278.63086 C 341.81926 278.67384 346.07501 279.18127 349.9375 280.1582 C 370.92913 285.46758 387.0395 303.55493 390.28711 325.46094 C 392.21502 338.46521 386.73381 357.41498 378.45508 366.36523 C 376.27999 368.71673 373.68459 371.53706 372.6875 372.63086 C 364.99233 381.07236 345.75035 387.52133 332.05859 386.24805 C 294.60983 382.76547 271.61571 342.08501 288.13281 308.53711 C 291.43015 301.83986 293.05258 299.98361 302.58203 292.00586 C 312.04417 284.08445 314.25117 282.74928 321.19141 280.75 C 326.27017 279.28695 331.93774 278.5756 337.49609 278.63086 z M 95.566406 313.53906 L 94.527344 321.38867 C 88.095437 369.91275 100.7813 426.65621 127.6543 469.55273 C 133.77814 479.32803 164.23803 514.76519 170.12891 518.96875 C 171.72911 520.11061 173.74013 520.45586 174.59961 519.73633 C 178.62061 516.37008 200.29331 480.25529 207.37891 465.11328 C 223.49465 430.67371 226.68836 405.7187 218.05859 381.63477 C 213.64187 369.3086 199.37263 352.84594 185.50781 344.07812 C 167.68176 332.80534 141.14038 323.22852 108.4668 316.28125 L 95.566406 313.53906 z M 406.1582 395.61133 L 396.35156 403.82227 L 386.54492 412.03125 L 421.61523 454.04102 C 440.90426 477.14586 460.97911 501.87055 466.22461 508.98438 L 475.76172 521.91797 L 487.16406 512.37305 L 498.56641 502.82617 L 479.80469 482.0293 C 469.4853 470.59068 448.69252 446.46706 433.59961 428.42188 L 406.1582 395.61133 z M 274.94922 404.3457 C 274.34094 404.29675 273.966 404.5301 273.71484 404.99805 C 265.89976 419.55909 215.95255 495.41933 195.82227 523.30078 C 191.69904 529.01166 189.58872 532.99139 190.25977 533.79297 C 191.35088 535.09631 209.17709 546.34099 211.15039 546.9707 C 212.89889 547.52867 213.30775 546.93173 231.05469 517.7832 C 250.2193 486.30621 279.60552 440.64493 289.73438 426.60742 C 295.28197 418.91906 296.07167 417.17903 294.36328 416.39844 C 293.23046 415.88085 288.35114 412.67738 283.51953 409.2793 C 278.75597 405.9291 276.28743 404.45339 274.94922 404.3457 z M 349.11523 456.23047 C 335.69599 456.10356 322.38979 459.42693 310.13281 466.15625 C 293.56762 475.25085 272.34225 495.33558 255.79688 517.56836 C 247.26862 529.02818 230.5966 554.98178 231.26953 555.75195 C 231.55752 556.08155 236.55666 558.07792 242.37695 560.18945 C 279.1892 573.54448 327.79861 576.83614 369.54297 568.80078 C 394.03465 564.08637 421.10718 554.32582 444.01172 541.95117 C 449.60927 538.92698 455.25053 535.61726 456.54883 534.59766 L 458.91016 532.74414 L 444.55664 515.63867 C 421.24425 487.85783 401.96599 472.03427 380.19336 462.80859 C 370.05871 458.51425 359.55243 456.32918 349.11523 456.23047 z " />
  </g>
</svg>
